<svg xmlns="http://www.w3.org/2000/svg" viewBox="0 0 64 64" role="img" aria-label="Citadel of the Seraphim">
  <defs>
    <linearGradient id="sky" x1="10" y1="8" x2="56" y2="58" gradientUnits="userSpaceOnUse">
      <stop offset="0" stop-color="#273a62"/>
      <stop offset=".48" stop-color="#0a0d14"/>
      <stop offset="1" stop-color="#5a1f35"/>
    </linearGradient>
    <linearGradient id="gold" x1="12" y1="10" x2="54" y2="54" gradientUnits="userSpaceOnUse">
      <stop offset="0" stop-color="#fff2b7"/>
      <stop offset=".42" stop-color="#e0b24f"/>
      <stop offset="1" stop-color="#7f5a24"/>
    </linearGradient>
    <linearGradient id="crystal" x1="28" y1="13" x2="38" y2="49" gradientUnits="userSpaceOnUse">
      <stop offset="0" stop-color="#f8ffff"/>
      <stop offset=".28" stop-color="#8ee8ff"/>
      <stop offset=".66" stop-color="#168fdf"/>
      <stop offset="1" stop-color="#113773"/>
    </linearGradient>
    <filter id="glow" x="-40%" y="-40%" width="180%" height="180%">
      <feGaussianBlur stdDeviation="2.4" result="blur"/>
      <feColorMatrix in="blur" type="matrix" values="0 0 0 0 0.48 0 0 0 0 0.86 0 0 0 0 1 0 0 0 .72 0"/>
      <feMerge>
        <feMergeNode/>
        <feMergeNode in="SourceGraphic"/>
      </feMerge>
    </filter>
  </defs>
  <rect x="4" y="4" width="56" height="56" rx="13" fill="url(#sky)"/>
  <rect x="5.5" y="5.5" width="53" height="53" rx="11.5" fill="none" stroke="url(#gold)" stroke-width="3"/>
  <path d="M12 18 46 52" stroke="#fff3bf" stroke-width="4.2" stroke-linecap="round" opacity=".88"/>
  <path d="M13 46c8-9 13-13 19-13s11 4 19 13c-9-3-16-2-19 2-3-4-10-5-19-2Z" fill="#091016" opacity=".72"/>
  <path d="M15 36c8-8 13-11 17-11s9 3 17 11c-9-2-14-1-17 3-3-4-8-5-17-3Z" fill="none" stroke="url(#gold)" stroke-width="3" stroke-linecap="round" stroke-linejoin="round"/>
  <path d="M32 10 39 25 32 54 25 25Z" fill="url(#crystal)" filter="url(#glow)"/>
  <path d="M32 10 32 54M25 25h14" stroke="#dfffff" stroke-width="1.5" opacity=".72"/>
  <path d="M19 22c4-7 8-10 13-10s9 3 13 10" fill="none" stroke="url(#gold)" stroke-width="2.4" stroke-linecap="round"/>
  <path d="M18 29c-4-1-7-3-10-7 6 1 10 2 14 5m24 2c4-1 7-3 10-7-6 1-10 2-14 5" fill="none" stroke="#f4d784" stroke-width="2.5" stroke-linecap="round" stroke-linejoin="round"/>
</svg>
